PathFileType	4	(X/Y/Z)	C:\Users\u0145647\OneDrive - KU Leuven\KU Leuven\c3d2osim\CP4\T0\Data\Processed\ViconC3D_CP4_2\CP4_T0_cmj_T2_gapFilled.trc
DataRate	CameraRate	NumFrames	NumMarkers	Units	OrigDataRate	OrigDataStartFrame	OrigNumFrames
100.000000	100.000000	8	47	mm	100.000000	80	638
Frame#	Time	C7			T10			CLAV			STRN			LSHO			RSHO			RBAK			LASI			RASI			LPSI			RPSI			LLAT			RLAT			LF1			LF2			LF3			LTHI			LKNE			LMEK			RF1			RF2			RF3			RTHI			RKNE			RMEK			LT1			LT2			LT3			LTIB			LANK			LMM			RT1			RT2			RT3			RTIB			RANK			RMM			LHEE			LSTL			LLCA			LTOE			LCM5			RHEE			RSTL			RLCA			RTOE			RCM5
		X1	Y1	Z1	X2	Y2	Z2	X3	Y3	Z3	X4	Y4	Z4	X5	Y5	Z5	X6	Y6	Z6	X7	Y7	Z7	X8	Y8	Z8	X9	Y9	Z9	X10	Y10	Z10	X11	Y11	Z11	X12	Y12	Z12	X13	Y13	Z13	X14	Y14	Z14	X15	Y15	Z15	X16	Y16	Z16	X17	Y17	Z17	X18	Y18	Z18	X19	Y19	Z19	X20	Y20	Z20	X21	Y21	Z21	X22	Y22	Z22	X23	Y23	Z23	X24	Y24	Z24	X25	Y25	Z25	X26	Y26	Z26	X27	Y27	Z27	X28	Y28	Z28	X29	Y29	Z29	X30	Y30	Z30	X31	Y31	Z31	X32	Y32	Z32	X33	Y33	Z33	X34	Y34	Z34	X35	Y35	Z35	X36	Y36	Z36	X37	Y37	Z37	X38	Y38	Z38	X39	Y39	Z39	X40	Y40	Z40	X41	Y41	Z41	X42	Y42	Z42	X43	Y43	Z43	X44	Y44	Z44	X45	Y45	Z45	X46	Y46	Z46	X47	Y47	Z47

80	0.79	-146	1435.1	-283.11	-125.25	1186.6	-351.74	-153.74	1338.1	-181.8	-147.85	1184.6	-175.87	57.98	1384.4	-194.59	-340.37	1381.2	-268.91	-259.07	1354.3	-347.32	-60.342	911.49	-204.93	-256.97	912.58	-245.76	-89.734	962.05	-381.1	-160.52	966.57	-396.62	1.6547	981.97	-248.2	-289.82	991.25	-305.49	60.837	678.86	-218.7	53.648	720.19	-238.91	66.539	670.56	-252.11	121.74	608.18	-230.11	77.707	471.93	-202.85	NaN	NaN	NaN	-326.41	646.64	-314.02	-330.03	681.26	-295.91	-309.84	675.29	-354.76	-368.28	586.18	-314.37	-317.88	463.2	-263.47	NaN	NaN	NaN	120.94	316.31	-289.06	107.48	343.51	-235.92	110.05	360.1	-285.68	161.32	243.73	-248.4	134.71	86.746	-353.23	50.947	76.65	-320.46	-339.43	319.07	-311.93	-331.36	357.98	-279.23	-326.9	366.97	-330.36	-389.09	252.5	-320.19	-338.15	72.67	-346.37	-263.25	77.42	-299.48	82.098	62.576	-393.97	60.242	47.184	-326.65	135.46	57.43	-351.19	133.53	47.152	-223.15	175.22	39.407	-246.92	-280.66	62.868	-376.04	-269.93	41.72	-304.9	-340.75	47.228	-340.96	-369.73	45.511	-218.08	-406.52	33.256	-264.35
81	0.8	-145.55	1433.8	-280.36	-125.01	1186	-351.2	-153.11	1336	-179.69	-147.23	1182.5	-175.02	58.559	1382.4	-192.68	-340.12	1379.9	-265.77	-259.08	1353.5	-344.74	-60.051	909.77	-207.26	-256.24	911.57	-247.63	-89.885	961.49	-383.01	-160.71	966.26	-398.41	1.9622	980.28	-250.18	-289.69	990.5	-306.13	61.317	678.17	-219.67	54.108	719.36	-240.52	67.056	669.66	-252.92	122.61	607.45	-229.46	78.603	471.64	-201.42	NaN	NaN	NaN	-326.83	646.09	-314.05	-330.29	680.88	-296.16	-310.53	674.57	-355.08	-368.61	585.58	-313.83	-317.81	463.1	-262.57	NaN	NaN	NaN	121.21	316.3	-287.99	108.2	343.24	-234.42	110.32	359.83	-284.28	161.49	243.42	-247.67	134.22	87.075	-353.12	50.859	76.786	-319.92	-339.55	319.03	-311.14	-331.42	357.83	-278.42	-327.11	366.93	-329.55	-389.16	252.36	-319.4	-338.22	72.645	-346.27	-263.16	77.408	-299.54	81.318	62.964	-393.7	59.816	47.294	-326.31	134.96	57.801	-351.09	133.47	47.154	-223.07	175.02	39.439	-246.95	-280.8	62.887	-376.08	-269.88	41.663	-304.98	-340.79	47.24	-340.88	-369.52	45.533	-217.98	-406.33	33.369	-264.12
82	0.81	-145.08	1432.2	-277.49	-124.77	1185.4	-350.72	-152.31	1333.8	-177.58	-146.5	1180.2	-174.25	59.186	1380.2	-190.65	-339.65	1378.3	-262.47	-259.05	1352.6	-341.97	-59.838	908.05	-209.78	-255.96	910.33	-249.27	-90.096	960.83	-385.16	-160.89	965.83	-400.25	2.3057	978.61	-252.41	-289.42	989.66	-306.94	61.749	677.52	-220.51	54.45	718.49	-241.85	67.398	668.73	-253.81	123.29	607.19	-230.28	79.512	471.37	-199.53	NaN	NaN	NaN	-327.17	645.51	-314.04	-330.47	680.45	-296.37	-311.15	673.73	-355.46	-368.92	585.01	-313.1	-317.76	463.05	-261.56	NaN	NaN	NaN	121.46	316.25	-286.88	108.68	342.88	-233.03	110.91	359.77	-282.94	161.61	243.15	-246.91	133.66	87.497	-352.87	50.475	76.895	-319.51	-339.65	318.94	-310.2	-331.4	357.75	-277.47	-327.17	366.91	-328.55	-389.23	252.28	-318.44	-338.26	72.625	-346.18	-263.32	77.096	-299.17	80.414	63.408	-393.38	59.376	47.471	-326.02	134.39	58.127	-351.06	133.34	47.148	-223	174.81	39.504	-247.06	-280.93	62.903	-376.1	-269.88	41.559	-304.95	-340.82	47.283	-340.79	-369.28	45.584	-217.81	-406.12	33.532	-263.88
83	0.82	-144.6	1430.6	-274.54	-124.52	1184.6	-350.17	-151.61	1331.4	-175.35	-145.68	1177.7	-173.7	59.823	1378	-188.38	-339.09	1376.5	-259.06	-258.97	1351.6	-339.09	-59.518	906.15	-212.5	-255.44	908.9	-251.25	-90.195	960.1	-387.49	-161.1	965.22	-402.25	2.5611	976.83	-254.8	-289.09	988.7	-307.97	62.337	676.95	-221.62	54.769	717.45	-243.49	67.869	667.75	-254.78	123.69	606.44	-230.5	80.475	471.19	-198.04	NaN	NaN	NaN	-327.5	644.85	-313.99	-330.5	679.94	-296.6	-311.79	672.74	-355.87	-369.27	584.34	-312.22	-317.64	462.82	-260.21	NaN	NaN	NaN	121.72	316.22	-285.58	109.06	342.71	-231.71	111.34	359.84	-281.6	161.72	243.04	-246	133.1	87.892	-352.79	49.986	77.12	-319	-339.68	318.81	-309.22	-331.37	357.57	-276.33	-327.39	366.86	-327.47	-389.29	252.18	-317.36	-338.54	72.698	-345.98	-263.2	76.964	-299.26	79.513	63.843	-392.9	58.795	47.807	-325.85	133.71	58.532	-350.9	133.24	47.162	-222.93	174.58	39.603	-247.18	-281.03	62.935	-376.13	-269.79	41.518	-305.03	-340.81	47.269	-340.75	-369.06	45.603	-217.66	-405.89	33.681	-263.66
84	0.83	-143.97	1428.6	-271.43	-124.16	1183.7	-349.69	-150.74	1328.7	-173.07	-144.83	1174.9	-172.98	60.552	1375.4	-186.19	-338.64	1374.5	-255.45	-258.76	1350.3	-336.1	-58.944	903.86	-215.8	-254.88	907.34	-253.53	-90.304	959.18	-390.01	-161.2	964.54	-404.44	2.8801	974.9	-257.23	-288.54	987.73	-309.3	62.74	676.24	-222.93	55.204	716.35	-245.32	68.235	666.62	-255.75	124.44	605.69	-230.78	81.432	471.03	-196.2	NaN	NaN	NaN	-327.78	644.15	-314	-330.21	679.27	-296.85	-312.43	671.72	-356.25	-369.56	583.57	-311.39	-317.5	462.53	-258.88	NaN	NaN	NaN	121.98	316.21	-283.95	109.48	342.63	-230	112.02	360.46	-279.92	161.96	242.65	-244.71	132.59	88.435	-352.49	49.551	77.363	-318.48	-339.63	318.67	-308.14	-331.29	357.34	-275.08	-327.43	366.76	-326.28	-389.29	252.06	-316.36	-338.53	72.677	-345.85	-263.12	76.928	-299.31	78.772	64.29	-392.52	58.299	47.985	-325.37	133.1	58.945	-350.69	133.08	47.244	-222.73	174.34	39.687	-247.18	-281.1	62.986	-376.15	-269.69	41.47	-305.08	-340.8	47.303	-340.66	-368.8	45.606	-217.5	-405.71	33.834	-263.45
85	0.84	-143.38	1426.5	-268.33	-123.83	1182.7	-349.3	-149.82	1325.7	-170.69	-143.87	1171.7	-172.4	61.236	1372.7	-183.73	-337.75	1372.2	-251.82	-258.64	1348.9	-333.03	-58.567	901.73	-218.96	-254.29	905.61	-255.97	-90.387	958.04	-392.6	-161.26	963.63	-406.92	3.2541	972.94	-259.94	-288.07	986.63	-310.71	63.468	675.58	-224.11	56.051	715.38	-247.24	68.717	665.37	-257.09	125.14	605.11	-231.3	82.37	470.7	-194.51	NaN	NaN	NaN	-327.96	643.34	-314.09	-330.4	678.56	-297.29	-312.98	670.5	-356.75	-369.74	582.83	-310.49	-317.38	462.24	-257.51	NaN	NaN	NaN	122.32	316.11	-282.63	109.95	342.45	-228.51	111.84	359.86	-278	162.15	242.3	-243.7	132.07	88.78	-352.25	49.203	77.653	-317.92	-339.6	318.49	-306.97	-331.09	357.14	-273.86	-327.43	366.59	-325.05	-389.23	251.98	-315.16	-338.47	72.707	-345.69	-263.01	76.805	-299.3	78.158	64.776	-392.13	57.799	47.754	-325.05	132.61	59.304	-350.55	132.96	47.247	-222.55	174.11	39.773	-247.13	-281.2	63.017	-376.12	-269.61	41.427	-305.16	-340.82	47.342	-340.54	-368.55	45.64	-217.35	-405.52	33.96	-263.24
86	0.85	-142.72	1424.1	-265.07	-123.36	1181.5	-348.88	-148.79	1322.3	-168.26	-142.91	1168.5	-171.77	62.042	1369.6	-181.37	-337.21	1369.8	-247.88	-258.44	1347.1	-329.84	-58.168	899.32	-222.22	-253.73	903.89	-258.61	-90.317	956.76	-395.38	-161.25	962.54	-409.55	3.6591	970.67	-262.7	-287.63	985.45	-312.55	63.436	674.51	-225.05	56.073	714.02	-248.83	69.332	664.13	-258.31	125.75	604.14	-232	83.261	470.5	-192.74	NaN	NaN	NaN	-328.16	642.41	-314.21	-330.38	677.77	-297.74	-313.64	669.16	-357.32	-369.97	581.97	-309.45	-317.13	461.97	-256.02	NaN	NaN	NaN	122.73	316.08	-281.25	110.48	341.83	-227.06	112.35	359.65	-276.62	162.28	241.86	-242.74	131.83	89.067	-352.05	48.917	77.923	-317.41	-339.44	318.31	-305.8	-330.6	356.7	-272.39	-327.32	366.43	-323.8	-389.2	251.79	-314.09	-338.47	72.744	-345.54	-262.9	76.684	-299.29	77.7	65.187	-391.85	57.567	48.371	-324.7	132.31	59.663	-350.4	132.8	47.25	-222.4	173.96	39.842	-247.06	-281.23	63.065	-376.11	-269.53	41.292	-305.2	-340.83	47.392	-340.44	-368.34	45.67	-217.18	-405.34	34.101	-263.01
87	0.86	-141.98	1421.3	-261.66	-122.84	1180.3	-348.53	-147.7	1318.8	-165.79	-141.79	1164.8	-171.32	62.896	1366.4	-178.75	-336.32	1367	-243.83	-258.1	1345.4	-326.57	-57.719	896.89	-225.51	-253.07	901.92	-261.46	-90.286	955.35	-398.3	-161.1	961.3	-412.24	4.1275	968.41	-265.69	-287.02	983.96	-314.3	64.695	673.78	-226.51	56.489	712.65	-250.62	70.136	662.88	-259.67	126.41	603.01	-232.63	84.1	470.14	-191.32	NaN	NaN	NaN	-328.26	641.46	-314.31	-329.89	676.85	-298.16	-314.01	667.74	-357.95	-370.01	580.95	-308.67	-316.95	461.69	-254.47	NaN	NaN	NaN	123.14	315.94	-280.08	111.18	341.63	-225.36	112.97	359.34	-275.37	162.49	241.33	-241.59	131.68	89.353	-351.84	48.772	78.076	-317.02	-339.37	318.17	-304.65	-330.59	356.45	-271.03	-327.32	366.36	-322.33	-389.17	251.74	-312.91	-338.27	72.742	-345.46	-262.8	76.567	-299.22	77.394	65.554	-391.64	57.331	48.648	-324.43	132.03	59.933	-350.29	132.73	47.326	-222.33	173.8	39.916	-247.04	-281.26	63.089	-376.06	-269.45	41.206	-305.2	-340.77	47.463	-340.34	-368.1	45.729	-216.98	-405.1	34.251	-262.77
